<svg width="26" height="26" viewBox="0 0 26 26" fill="none" xmlns="http://www.w3.org/2000/svg">
<path d="M15.3075 12.2851C15.73 10.5085 14.1809 8.95924 12.4042 9.38174C11.57 9.58757 10.8875 10.2701 10.6817 11.1043C10.2592 12.881 11.8084 14.43 13.585 14.0075C14.43 13.8017 15.1125 13.1193 15.3075 12.2851Z" stroke="#458BEB" stroke-opacity="0.68" stroke-width="2" stroke-linecap="round" stroke-linejoin="round"/>
<path d="M19.5107 18.6225C21.3632 16.8891 22.5223 14.43 22.5223 11.6891C22.5223 6.4241 18.2541 2.16663 13 2.16663C7.74574 2.16663 3.47742 6.43494 3.47742 11.6891C3.47742 14.4408 4.64742 16.9216 6.52158 18.655" stroke="#458BEB" stroke-opacity="0.68" stroke-width="2" stroke-linecap="round" stroke-linejoin="round"/>
<path d="M8.66667 15.7625C7.67 14.7008 7.05249 13.2708 7.05249 11.6891C7.05249 8.40669 9.7175 5.7417 13 5.7417C16.2825 5.7417 18.9475 8.40669 18.9475 11.6891C18.9475 13.2708 18.33 14.69 17.3333 15.7625" stroke="#458BEB" stroke-opacity="0.68" stroke-width="2" stroke-linecap="round" stroke-linejoin="round"/>
<path d="M11.1584 18.0483L9.59837 19.9876C8.36337 21.5368 9.45753 23.8225 11.4401 23.8225H14.5492C16.5317 23.8225 17.6367 21.526 16.3909 19.9876L14.8309 18.0483C13.8992 16.8675 12.1009 16.8675 11.1584 18.0483Z" stroke="#458BEB" stroke-opacity="0.68" stroke-width="2" stroke-linecap="round" stroke-linejoin="round"/>
</svg>
