<svg width="26" height="26" viewBox="0 0 26 26" fill="none" xmlns="http://www.w3.org/2000/svg">
<g clip-path="url(#clip0_9_218)">
<path d="M9.00203 16.3024C8.89125 16.3024 8.7778 16.3051 8.66437 16.3051C6.30884 16.3051 4.08567 16.0296 2.40276 15.5298C1.53564 15.2732 0.841407 14.9652 0.338966 14.6114C0.266031 14.56 0.198498 14.5087 0.133667 14.4574V18.3581C0.133667 19.7546 3.9533 20.8865 8.66437 20.8865C8.90476 20.8865 9.14247 20.8838 9.37748 20.8784C9.03442 19.9221 8.86154 18.9172 8.86154 17.888C8.86156 17.3505 8.90749 16.821 9.00203 16.3024Z" fill="#458BEB" fill-opacity="0.68"/>
<path d="M11.4657 11.5994C11.8142 11.2509 12.187 10.9349 12.5814 10.654C11.3766 10.8322 10.0422 10.9268 8.66449 10.9268C6.30896 10.9268 4.08579 10.6513 2.40288 10.1515C1.53576 9.89489 0.841529 9.58695 0.339088 9.23308C0.266153 9.18175 0.19862 9.13043 0.133789 9.0791V12.9636C0.133789 13.077 0.160802 13.1878 0.209425 13.2985C0.763192 14.5384 4.33701 15.492 8.66449 15.492C8.84008 15.492 9.01566 15.4893 9.18852 15.4866C9.28846 15.1273 9.41272 14.7707 9.5613 14.4249C9.7261 14.0333 9.91787 13.6578 10.1367 13.2985C10.504 12.6854 10.9498 12.1154 11.4657 11.5994Z" fill="#458BEB" fill-opacity="0.68"/>
<path d="M8.66437 5.86722C6.30884 5.86722 4.08567 5.59169 2.40276 5.09195C1.53564 4.83532 0.841407 4.52738 0.338966 4.17351C0.266031 4.12218 0.198498 4.07086 0.133667 4.01953V7.09631V7.50151V7.58795C0.133667 7.696 0.157979 7.80405 0.201199 7.9067C0.730654 9.152 4.31798 10.1164 8.66437 10.1164C13.0107 10.1164 16.5981 9.152 17.1275 7.9067C17.1707 7.80135 17.195 7.696 17.195 7.58795V7.50151V7.09631V4.01953C17.1302 4.07356 17.0627 4.12488 16.9897 4.17351C16.4873 4.52467 15.793 4.83262 14.926 5.09195C13.2431 5.59169 11.0199 5.86722 8.66437 5.86722Z" fill="#458BEB" fill-opacity="0.68"/>
<path d="M17.1951 2.52842C17.1951 2.39065 17.1572 2.25558 17.0843 2.12322C17.0087 1.98275 16.8952 1.84769 16.7467 1.71803C15.6067 0.718545 12.4192 0 8.66437 0C4.90956 0 1.7193 0.718545 0.582083 1.71803C0.433511 1.84769 0.320057 1.98275 0.24442 2.12322C0.171485 2.25558 0.133667 2.39065 0.133667 2.52842C0.133667 3.92499 3.9533 5.05683 8.66437 5.05683C13.3754 5.05683 17.1951 3.92499 17.1951 2.52842Z" fill="#458BEB" fill-opacity="0.68"/>
<path d="M18.0054 9.77603C17.9217 9.77333 17.838 9.77063 17.7515 9.77063C17.7002 9.77063 17.6489 9.77063 17.6002 9.77333C17.4652 9.77603 17.3301 9.78143 17.195 9.78954C14.6477 9.96242 12.4219 11.3104 11.0577 13.2985C10.6066 13.9549 10.2473 14.6843 10.0042 15.4623C9.96097 15.5973 9.92315 15.7351 9.88803 15.8729C9.85292 16.0079 9.8232 16.1457 9.79619 16.2808C9.69087 16.7994 9.63684 17.337 9.63684 17.8853C9.63684 18.9307 9.83404 19.9275 10.1933 20.8433C11.3765 23.8606 14.3155 26 17.7515 26C22.2329 26 25.8662 22.3668 25.8662 17.8854C25.8689 13.4903 22.3707 9.9111 18.0054 9.77603ZM20.1286 21.7941C19.7207 22.2236 19.1643 22.5073 18.5268 22.6207V22.9449C18.5268 23.242 18.2864 23.4824 17.9892 23.4824H17.6975C17.4003 23.4824 17.16 23.242 17.16 22.9449V22.6072C16.8088 22.5397 16.4711 22.4262 16.1686 22.2723C15.812 22.0886 15.5014 21.7888 15.242 21.3836C15.0692 21.1134 14.9449 20.8001 14.8692 20.4489C14.8395 20.3166 14.8639 20.1842 14.926 20.0761C15.0016 19.941 15.1367 19.8411 15.3014 19.8114L15.5904 19.7601C15.6499 19.7493 15.7093 19.7493 15.7633 19.7601C15.9714 19.7925 16.1469 19.9437 16.201 20.1571C16.282 20.4786 16.3928 20.7271 16.5305 20.9027C16.8384 21.2971 17.3463 21.5321 17.8893 21.5321C17.9811 21.5321 18.0729 21.524 18.1648 21.5105C18.5538 21.4511 18.9023 21.2674 19.1426 20.9919C19.3993 20.7001 19.5289 20.3328 19.5289 19.9006C19.5289 19.5359 19.4398 19.2387 19.2615 19.0199C18.9347 18.6201 18.3755 18.4473 17.8703 18.3338C17.6354 18.2798 17.4111 18.2284 17.1896 18.1663C16.8223 18.061 16.4684 17.9313 16.1145 17.7341C15.7498 17.5315 15.4662 17.2452 15.269 16.8859C15.0745 16.5294 14.9746 16.1188 14.9746 15.6649C14.9746 15.6109 14.9773 15.5596 14.9773 15.5082C14.9854 15.3543 15.0043 15.2084 15.0313 15.0679C15.0665 14.9004 15.115 14.7411 15.1799 14.5898C15.3231 14.2549 15.5419 13.9577 15.8309 13.7038C16.02 13.539 16.2469 13.4012 16.5035 13.2959C16.7034 13.2121 16.9222 13.15 17.1518 13.1068V12.6691C17.1518 12.6043 17.1653 12.5395 17.187 12.4827C17.2517 12.3071 17.4058 12.1775 17.5922 12.1424C17.6246 12.137 17.6569 12.1343 17.6894 12.1343H17.9811C17.9866 12.1343 17.9919 12.1343 17.9974 12.1343C18.2864 12.1424 18.5187 12.3801 18.5187 12.6691V13.1148C19.0022 13.2094 19.4318 13.3985 19.7559 13.6659C20.099 13.9495 20.3475 14.3088 20.5015 14.741C20.6149 15.0571 20.4069 15.4001 20.0747 15.4488L19.791 15.492C19.5344 15.5298 19.2859 15.3785 19.2049 15.1354C19.1373 14.9355 19.0455 14.7707 18.932 14.6438C18.6754 14.3574 18.2729 14.1927 17.8272 14.1927C17.6921 14.1927 17.5598 14.2089 17.4328 14.2359C17.3491 14.2548 17.268 14.2791 17.1897 14.3088C16.9682 14.3953 16.7737 14.5222 16.6251 14.687C16.5549 14.7653 16.4981 14.8464 16.4495 14.9328C16.3415 15.1273 16.2875 15.3434 16.2875 15.5839C16.2875 15.9242 16.382 16.2133 16.5711 16.4429C16.7386 16.6428 16.9493 16.7833 17.187 16.8859C17.5111 17.0263 17.8786 17.102 18.2405 17.1749C18.6052 17.2479 18.9833 17.3235 19.3129 17.4694C19.6614 17.6233 19.9531 17.8151 20.1746 18.0366C20.3988 18.2608 20.5717 18.5283 20.6933 18.8362C20.8121 19.1415 20.8743 19.4764 20.8743 19.8303C20.8769 20.6109 20.6257 21.2701 20.1286 21.7941Z" fill="#458BEB" fill-opacity="0.68"/>
</g>
<defs>
<clipPath id="clip0_9_218">
<rect width="26" height="26" fill="white"/>
</clipPath>
</defs>
</svg>
