<svg width="26" height="26" viewBox="0 0 26 26" fill="none" xmlns="http://www.w3.org/2000/svg">
<path d="M23.0745 8.21137H17.0295C16.607 8.21137 16.2711 7.87554 16.2711 7.45304C16.2711 7.03054 16.607 6.6947 17.0295 6.6947H23.0745C23.497 6.6947 23.8328 7.03054 23.8328 7.45304C23.8328 7.87554 23.497 8.21137 23.0745 8.21137Z" fill="#458BEB" fill-opacity="0.68"/>
<path d="M6.95496 8.21137H2.92496C2.50246 8.21137 2.16663 7.87554 2.16663 7.45304C2.16663 7.03054 2.50246 6.6947 2.92496 6.6947H6.95496C7.37746 6.6947 7.71329 7.03054 7.71329 7.45304C7.71329 7.87554 7.36663 8.21137 6.95496 8.21137Z" fill="#458BEB" fill-opacity="0.68"/>
<path d="M10.9844 11.7322C13.3477 11.7322 15.2636 9.81631 15.2636 7.453C15.2636 5.08967 13.3477 3.17383 10.9844 3.17383C8.62105 3.17383 6.7052 5.08967 6.7052 7.453C6.7052 9.81631 8.62105 11.7322 10.9844 11.7322Z" fill="#458BEB" fill-opacity="0.68"/>
<path d="M23.0759 19.2944H19.0459C18.6234 19.2944 18.2876 18.9585 18.2876 18.536C18.2876 18.1135 18.6234 17.7777 19.0459 17.7777H23.0759C23.4984 17.7777 23.8343 18.1135 23.8343 18.536C23.8343 18.9585 23.4984 19.2944 23.0759 19.2944Z" fill="#458BEB" fill-opacity="0.68"/>
<path d="M8.96996 19.2944H2.92496C2.50246 19.2944 2.16663 18.9585 2.16663 18.536C2.16663 18.1135 2.50246 17.7777 2.92496 17.7777H8.96996C9.39246 17.7777 9.72829 18.1135 9.72829 18.536C9.72829 18.9585 9.38163 19.2944 8.96996 19.2944Z" fill="#458BEB" fill-opacity="0.68"/>
<path d="M15.0152 22.8279C17.3785 22.8279 19.2943 20.912 19.2943 18.5487C19.2943 16.1854 17.3785 14.2695 15.0152 14.2695C12.6518 14.2695 10.736 16.1854 10.736 18.5487C10.736 20.912 12.6518 22.8279 15.0152 22.8279Z" fill="#458BEB" fill-opacity="0.68"/>
</svg>
