<svg width="26" height="26" viewBox="0 0 26 26" fill="none" xmlns="http://www.w3.org/2000/svg">
<path d="M13.8633 23.3086L14.2589 22.293L14.5742 23.3086L14.8682 22.1239L14.6524 19.6864C14.2584 20.0896 13.7617 20.5928 13.1422 21.2235L13.8633 23.3086ZM15.8184 3.96805C15.5038 3.59262 15.1433 3.25822 14.7454 2.97274C13.8661 2.36945 12.9468 2.01231 11.9483 1.84844C10.9961 1.69269 10.0191 1.70915 9.08781 1.85453C8.28687 1.98074 7.50354 2.20061 6.75391 2.50961C6.22996 2.72357 5.72652 2.98464 5.24977 3.28961C4.62495 3.72618 4.72007 3.63635 5.29801 3.38203C5.80465 3.16572 6.32984 2.99575 6.86715 2.87422C9.42789 2.62885 11.8645 2.48935 13.6805 4.25395C13.9218 4.49739 14.1313 4.77039 14.3041 5.06645C14.5434 5.47574 14.7004 5.92348 14.7946 6.36594L17.1148 6.51016C16.8593 5.60869 16.3401 4.6021 15.8184 3.96805ZM18.36 5.32035C17.9267 4.64918 17.4208 4.02909 16.8538 3.5491C16.6088 3.34165 16.3395 3.16466 16.052 3.02199C16.1875 3.15809 16.317 3.29875 16.4384 3.44449C16.6041 3.64084 16.7589 3.84613 16.902 4.05945L16.9071 4.06656L16.9117 4.07367C17.4079 4.8425 17.7833 5.79323 17.9669 6.56957L19.0938 6.63559C18.8754 6.18308 18.6307 5.74375 18.361 5.31985L18.36 5.32035ZM19.8778 7.50395L23.4325 16.6141L22.8323 18.0548L19.4924 16.1281L19.0861 16.832L22.5169 18.8124L22.2972 19.1046L20.0139 18.8906L16.6964 17.2925C16.5423 17.2509 16.3841 17.2266 16.2246 17.2199C15.9346 17.2199 15.7412 17.3245 15.5792 17.5561C15.4507 17.7394 11.5929 21.645 8.08184 25.1875H0.8125V12.3769L5.52754 12.5724L10.4335 10.8834L10.9479 10.3248C11.6326 10.6668 12.2794 11.0799 12.8776 11.5573C13.0459 11.6886 13.2537 11.759 13.4672 11.7569C14.1676 11.6769 14.5856 11.2938 15.1343 10.8514C14.9684 9.77265 14.7929 8.6318 14.6489 7.69793C14.3207 7.5885 13.9925 7.47917 13.6642 7.36988L13.8871 7.12715L19.8778 7.50395ZM17.9862 10.8057C17.7819 10.059 16.9648 9.81922 16.4333 9.88457C16.2773 9.90651 16.1202 9.95704 15.988 10.0207C16.032 10.1776 16.0982 10.4203 16.1804 10.5463C16.5119 11.014 17.0614 11.252 17.584 11.1815C17.7855 11.1474 18.038 10.9949 17.9862 10.8057ZM21.1159 16.1616L22.0807 17.1773L22.6698 16.6187L21.7049 15.603L21.1159 16.1616ZM24.1211 8.78465C24.1211 8.78465 22.0624 7.37293 21.2266 8.72371L21.7979 10.1877L24.1211 8.78465ZM14.9297 19.401L15.6102 20.5324L15.5898 18.7225C15.4228 18.8977 15.2075 19.1196 14.9322 19.401H14.9297ZM13.3758 10.9205C13.6733 11.0156 14.27 10.6134 14.2558 10.5138L13.9171 8.3134L12.4952 7.84063C11.5989 7.69534 9.53855 7.58728 9.07918 8.31188C11.0899 10.3295 11.0864 9.16856 13.3758 10.9205ZM19.8291 19.7001C19.0515 19.3089 18.2631 18.9386 17.4789 18.5605C17.7406 20.0529 18.0322 21.54 18.2787 23.0349L19.5614 24.9305L19.4294 23.204L20.3125 23.8474V22.3915L20.83 20.2612L21.1687 19.7001H19.8291Z" fill="#458BEB" fill-opacity="0.68"/>
</svg>
