<svg width="26" height="26" viewBox="0 0 26 26" fill="none" xmlns="http://www.w3.org/2000/svg">
<path fill-rule="evenodd" clip-rule="evenodd" d="M17.3334 4.25754C17.3333 4.10921 17.3738 3.9637 17.4505 3.83677C17.5272 3.70983 17.6373 3.60633 17.7686 3.53746C17.9 3.4686 18.0477 3.43701 18.1957 3.44611C18.3438 3.45522 18.4865 3.50467 18.6084 3.58912L23.4098 6.91387C23.5177 6.98864 23.6059 7.08846 23.6668 7.20478C23.7277 7.32109 23.7596 7.45044 23.7596 7.58174C23.7596 7.71305 23.7277 7.84239 23.6668 7.95871C23.6059 8.07502 23.5177 8.17484 23.4098 8.24962L18.6084 11.5744C18.4865 11.6588 18.3438 11.7083 18.1957 11.7174C18.0477 11.7265 17.9 11.6949 17.7686 11.626C17.6373 11.5572 17.5272 11.4537 17.4505 11.3267C17.3738 11.1998 17.3333 11.0543 17.3334 10.906V8.6667H4.33335C4.04604 8.6667 3.77049 8.55257 3.56732 8.3494C3.36416 8.14624 3.25002 7.87069 3.25002 7.58337C3.25002 7.29605 3.36416 7.0205 3.56732 6.81734C3.77049 6.61417 4.04604 6.50004 4.33335 6.50004H17.3334V4.25754ZM7.3916 14.4225C7.51354 14.338 7.65626 14.2886 7.8043 14.2794C7.95235 14.2703 8.10005 14.3019 8.23142 14.3708C8.36279 14.4397 8.4728 14.5432 8.54952 14.6701C8.62625 14.797 8.66677 14.9425 8.66669 15.0909V17.3334H21.6667C21.954 17.3334 22.2296 17.4475 22.4327 17.6507C22.6359 17.8538 22.75 18.1294 22.75 18.4167C22.75 18.704 22.6359 18.9796 22.4327 19.1827C22.2296 19.3859 21.954 19.5 21.6667 19.5H8.66669V21.7393C8.66677 21.8876 8.62625 22.0331 8.54952 22.1601C8.4728 22.287 8.36279 22.3905 8.23142 22.4594C8.10005 22.5282 7.95235 22.5598 7.8043 22.5507C7.65626 22.5416 7.51354 22.4921 7.3916 22.4077L2.59027 19.083C2.48234 19.0082 2.39414 18.9084 2.33322 18.792C2.2723 18.6757 2.24048 18.5464 2.24048 18.4151C2.24048 18.2838 2.2723 18.1544 2.33322 18.0381C2.39414 17.9218 2.48234 17.822 2.59027 17.7472L7.3916 14.4225Z" fill="#458BEB" fill-opacity="0.48"/>
</svg>
